<svg xmlns="http://www.w3.org/2000/svg" width="1024" height="500" viewBox="0 0 1024 500">
  <defs>
    <linearGradient id="bg" x1="0" y1="0" x2="1" y2="1">
      <stop offset="0" stop-color="#00796B"/>
      <stop offset="1" stop-color="#009688"/>
    </linearGradient>
  </defs>
  <rect width="1024" height="500" fill="url(#bg)"/>

  <!-- Wordmark and tagline, left-of-center -->
  <text x="100" y="270" font-family="sans-serif" font-weight="bold" font-size="120" fill="#ffffff">Jobba</text>
  <text x="103" y="340" font-family="sans-serif" font-size="42" fill="#ffffff" opacity="0.88">Track your work hours</text>

  <!-- Stopwatch artwork from the app icon, right side -->
  <g transform="translate(519.2,-15.8) scale(5.2)">
    <g transform="translate(18.36,18.36) scale(0.66)">
      <path d="M54,16 L54,16 A3,3 0 0 1 57,19 L57,22 A3,3 0 0 1 54,25 L54,25 A3,3 0 0 1 51,22 L51,19 A3,3 0 0 1 54,16 Z" fill="#ffffff"/>
      <path d="M49,9 L59,9 A5,5 0 0 1 64,14 L64,14 A5,5 0 0 1 59,19 L49,19 A5,5 0 0 1 44,14 L44,14 A5,5 0 0 1 49,9 Z" fill="#ffffff"/>
      <path d="M13.5,52 L15.5,52 A1.5,1.5 0 0 1 17,53.5 L17,64.5 A1.5,1.5 0 0 1 15.5,66 L13.5,66 A1.5,1.5 0 0 1 12,64.5 L12,53.5 A1.5,1.5 0 0 1 13.5,52 Z" fill="#ffffff"/>
      <path d="M92.5,52 L94.5,52 A1.5,1.5 0 0 1 96,53.5 L96,64.5 A1.5,1.5 0 0 1 94.5,66 L92.5,66 A1.5,1.5 0 0 1 91,64.5 L91,53.5 A1.5,1.5 0 0 1 92.5,52 Z" fill="#ffffff"/>
      <path d="M54,24 A36,36 0 1 1 18,60" fill="none" stroke="#ffffff" stroke-width="4.5" stroke-linecap="round"/>
      <path d="M18.1,58.1 A36,36 0 0 1 18.6,53.8" fill="none" stroke="#ffffff" stroke-width="4.5" stroke-linecap="butt"/>
      <path d="M19.8,48.9 A36,36 0 0 1 20.9,45.9" fill="none" stroke="#ffffff" stroke-width="4.5" stroke-linecap="butt"/>
      <path d="M22.8,42.0 A36,36 0 0 1 24.2,39.9" fill="none" stroke="#ffffff" stroke-width="4.5" stroke-linecap="butt"/>
      <path d="M26.8,36.4 A36,36 0 0 1 28.1,35.0" fill="none" stroke="#ffffff" stroke-width="4.5" stroke-linecap="butt"/>
      <path d="M31.3,32.0 A36,36 0 0 1 32.6,31.1" fill="none" stroke="#ffffff" stroke-width="4.5" stroke-linecap="butt"/>
      <path d="M36.3,28.7 A36,36 0 0 1 37.4,28.1" fill="none" stroke="#ffffff" stroke-width="4.5" stroke-linecap="butt"/>
      <path d="M40.8,26.5 A36,36 0 0 1 41.7,26.2" fill="none" stroke="#ffffff" stroke-width="4.5" stroke-linecap="butt"/>
      <path d="M44.7,25.2 A36,36 0 0 1 45.3,25.1" fill="none" stroke="#ffffff" stroke-width="4.5" stroke-linecap="butt"/>
      <path d="M46,49 L46,71 L70,60 Z" fill="#ffffff"/>
    </g>
  </g>
</svg>
